<mxfile host="app.diagrams.net" modified="2024-06-18T11:18:37.145Z" agent="Mozilla/5.0 (Windows NT 10.0; Win64; x64; rv:127.0) Gecko/20100101 Firefox/127.0" etag="XoKyGLorLXOpIXoZGiQj" version="24.5.5" type="device">
  <diagram id="R2lEEEUBdFMjLlhIrx00" name="Page-1">
    <mxGraphModel dx="3932" dy="2095" grid="1" gridSize="10" guides="1" tooltips="1" connect="1" arrows="1" fold="1" page="1" pageScale="1" pageWidth="850" pageHeight="1100" math="0" shadow="0" extFonts="Permanent Marker^https://fonts.googleapis.com/css?family=Permanent+Marker">
      <root>
        <mxCell id="0" />
        <mxCell id="1" parent="0" />
        <mxCell id="ywMon-VLnov4TyRL90F_-36" style="edgeStyle=orthogonalEdgeStyle;rounded=0;orthogonalLoop=1;jettySize=auto;html=1;exitX=0;exitY=0.25;exitDx=0;exitDy=0;entryX=0;entryY=0.25;entryDx=0;entryDy=0;fillColor=#60a917;strokeColor=#2D7600;" edge="1" parent="1" source="ywMon-VLnov4TyRL90F_-2" target="ywMon-VLnov4TyRL90F_-29">
          <mxGeometry relative="1" as="geometry">
            <mxPoint x="-210" y="50" as="targetPoint" />
            <mxPoint x="-210" y="290" as="sourcePoint" />
            <Array as="points">
              <mxPoint x="-210" y="290" />
              <mxPoint x="-210" y="50" />
            </Array>
          </mxGeometry>
        </mxCell>
        <mxCell id="ywMon-VLnov4TyRL90F_-121" style="edgeStyle=orthogonalEdgeStyle;rounded=0;orthogonalLoop=1;jettySize=auto;html=1;exitX=0.25;exitY=1;exitDx=0;exitDy=0;entryX=0.5;entryY=0;entryDx=0;entryDy=0;fillColor=#60a917;strokeColor=#2D7600;startArrow=classic;startFill=1;" edge="1" parent="1" source="ywMon-VLnov4TyRL90F_-2" target="ywMon-VLnov4TyRL90F_-105">
          <mxGeometry relative="1" as="geometry">
            <Array as="points">
              <mxPoint x="-155" y="430" />
              <mxPoint x="-340" y="430" />
            </Array>
          </mxGeometry>
        </mxCell>
        <mxCell id="ywMon-VLnov4TyRL90F_-123" style="edgeStyle=orthogonalEdgeStyle;rounded=0;orthogonalLoop=1;jettySize=auto;html=1;exitX=0.75;exitY=1;exitDx=0;exitDy=0;entryX=0.25;entryY=0;entryDx=0;entryDy=0;fillColor=#60a917;strokeColor=#2D7600;startArrow=classic;startFill=1;" edge="1" parent="1" source="ywMon-VLnov4TyRL90F_-2" target="ywMon-VLnov4TyRL90F_-103">
          <mxGeometry relative="1" as="geometry" />
        </mxCell>
        <mxCell id="ywMon-VLnov4TyRL90F_-124" style="edgeStyle=orthogonalEdgeStyle;rounded=0;orthogonalLoop=1;jettySize=auto;html=1;exitX=1;exitY=1;exitDx=0;exitDy=0;entryX=0.5;entryY=0;entryDx=0;entryDy=0;fillColor=#60a917;strokeColor=#2D7600;startArrow=classic;startFill=1;" edge="1" parent="1" source="ywMon-VLnov4TyRL90F_-2" target="ywMon-VLnov4TyRL90F_-106">
          <mxGeometry relative="1" as="geometry">
            <Array as="points">
              <mxPoint x="-40" y="320" />
              <mxPoint x="-40" y="420" />
              <mxPoint x="110" y="420" />
            </Array>
          </mxGeometry>
        </mxCell>
        <mxCell id="ywMon-VLnov4TyRL90F_-2" value="admin.php" style="whiteSpace=wrap;html=1;align=center;fillColor=#60a917;fontColor=#ffffff;strokeColor=#2D7600;" vertex="1" parent="1">
          <mxGeometry x="-180" y="280" width="100" height="40" as="geometry" />
        </mxCell>
        <mxCell id="ywMon-VLnov4TyRL90F_-16" style="edgeStyle=orthogonalEdgeStyle;rounded=0;orthogonalLoop=1;jettySize=auto;html=1;exitX=1;exitY=0.5;exitDx=0;exitDy=0;entryX=1;entryY=0.5;entryDx=0;entryDy=0;" edge="1" parent="1" source="ywMon-VLnov4TyRL90F_-3" target="ywMon-VLnov4TyRL90F_-9">
          <mxGeometry relative="1" as="geometry" />
        </mxCell>
        <mxCell id="ywMon-VLnov4TyRL90F_-18" style="edgeStyle=orthogonalEdgeStyle;rounded=0;orthogonalLoop=1;jettySize=auto;html=1;exitX=0;exitY=0.5;exitDx=0;exitDy=0;entryX=0.5;entryY=1;entryDx=0;entryDy=0;startArrow=classic;startFill=1;" edge="1" parent="1" source="ywMon-VLnov4TyRL90F_-3" target="ywMon-VLnov4TyRL90F_-8">
          <mxGeometry relative="1" as="geometry" />
        </mxCell>
        <mxCell id="ywMon-VLnov4TyRL90F_-22" style="edgeStyle=orthogonalEdgeStyle;rounded=0;orthogonalLoop=1;jettySize=auto;html=1;exitX=0.5;exitY=1;exitDx=0;exitDy=0;entryX=0.5;entryY=0;entryDx=0;entryDy=0;startArrow=classic;startFill=1;" edge="1" parent="1" source="ywMon-VLnov4TyRL90F_-3" target="ywMon-VLnov4TyRL90F_-5">
          <mxGeometry relative="1" as="geometry" />
        </mxCell>
        <mxCell id="ywMon-VLnov4TyRL90F_-3" value="register.php" style="whiteSpace=wrap;html=1;align=center;" vertex="1" parent="1">
          <mxGeometry x="410" y="330" width="100" height="40" as="geometry" />
        </mxCell>
        <mxCell id="ywMon-VLnov4TyRL90F_-35" style="edgeStyle=orthogonalEdgeStyle;rounded=0;orthogonalLoop=1;jettySize=auto;html=1;exitX=0;exitY=0.25;exitDx=0;exitDy=0;entryX=0;entryY=0.5;entryDx=0;entryDy=0;fillColor=#0050ef;strokeColor=#001DBC;" edge="1" parent="1" source="ywMon-VLnov4TyRL90F_-4" target="ywMon-VLnov4TyRL90F_-29">
          <mxGeometry relative="1" as="geometry" />
        </mxCell>
        <mxCell id="ywMon-VLnov4TyRL90F_-80" style="edgeStyle=orthogonalEdgeStyle;rounded=0;orthogonalLoop=1;jettySize=auto;html=1;exitX=0;exitY=0.5;exitDx=0;exitDy=0;entryX=1;entryY=0.25;entryDx=0;entryDy=0;startArrow=classic;startFill=1;fillColor=#0050ef;strokeColor=#001DBC;" edge="1" parent="1" source="ywMon-VLnov4TyRL90F_-4" target="ywMon-VLnov4TyRL90F_-76">
          <mxGeometry relative="1" as="geometry" />
        </mxCell>
        <mxCell id="ywMon-VLnov4TyRL90F_-81" style="edgeStyle=orthogonalEdgeStyle;rounded=0;orthogonalLoop=1;jettySize=auto;html=1;exitX=0;exitY=0.75;exitDx=0;exitDy=0;entryX=1;entryY=0.25;entryDx=0;entryDy=0;startArrow=classic;startFill=1;fillColor=#0050ef;strokeColor=#001DBC;" edge="1" parent="1" source="ywMon-VLnov4TyRL90F_-4" target="ywMon-VLnov4TyRL90F_-71">
          <mxGeometry relative="1" as="geometry">
            <Array as="points">
              <mxPoint x="-270" y="230" />
              <mxPoint x="-270" y="330" />
            </Array>
          </mxGeometry>
        </mxCell>
        <mxCell id="ywMon-VLnov4TyRL90F_-82" style="edgeStyle=orthogonalEdgeStyle;rounded=0;orthogonalLoop=1;jettySize=auto;html=1;exitX=0;exitY=1;exitDx=0;exitDy=0;entryX=1;entryY=0.25;entryDx=0;entryDy=0;fillColor=#0050ef;strokeColor=#001DBC;startArrow=classic;startFill=1;" edge="1" parent="1" source="ywMon-VLnov4TyRL90F_-4" target="ywMon-VLnov4TyRL90F_-77">
          <mxGeometry relative="1" as="geometry">
            <Array as="points">
              <mxPoint x="-250" y="240" />
              <mxPoint x="-250" y="410" />
            </Array>
          </mxGeometry>
        </mxCell>
        <mxCell id="ywMon-VLnov4TyRL90F_-4" value="home.php" style="whiteSpace=wrap;html=1;align=center;fillColor=#0050ef;fontColor=#ffffff;strokeColor=#001DBC;" vertex="1" parent="1">
          <mxGeometry x="-180" y="200" width="100" height="40" as="geometry" />
        </mxCell>
        <mxCell id="ywMon-VLnov4TyRL90F_-5" value="reg.php" style="whiteSpace=wrap;html=1;align=center;" vertex="1" parent="1">
          <mxGeometry x="410" y="440" width="100" height="40" as="geometry" />
        </mxCell>
        <mxCell id="ywMon-VLnov4TyRL90F_-30" style="edgeStyle=orthogonalEdgeStyle;rounded=0;orthogonalLoop=1;jettySize=auto;html=1;exitX=0;exitY=0.5;exitDx=0;exitDy=0;entryX=1;entryY=0.5;entryDx=0;entryDy=0;" edge="1" parent="1" source="ywMon-VLnov4TyRL90F_-6" target="ywMon-VLnov4TyRL90F_-24">
          <mxGeometry relative="1" as="geometry" />
        </mxCell>
        <mxCell id="ywMon-VLnov4TyRL90F_-31" style="edgeStyle=orthogonalEdgeStyle;rounded=0;orthogonalLoop=1;jettySize=auto;html=1;exitX=0;exitY=0.5;exitDx=0;exitDy=0;entryX=1;entryY=0.5;entryDx=0;entryDy=0;" edge="1" parent="1" source="ywMon-VLnov4TyRL90F_-6" target="ywMon-VLnov4TyRL90F_-4">
          <mxGeometry relative="1" as="geometry" />
        </mxCell>
        <mxCell id="ywMon-VLnov4TyRL90F_-32" style="edgeStyle=orthogonalEdgeStyle;rounded=0;orthogonalLoop=1;jettySize=auto;html=1;exitX=0;exitY=0.5;exitDx=0;exitDy=0;entryX=1;entryY=0.5;entryDx=0;entryDy=0;" edge="1" parent="1" source="ywMon-VLnov4TyRL90F_-6" target="ywMon-VLnov4TyRL90F_-2">
          <mxGeometry relative="1" as="geometry" />
        </mxCell>
        <mxCell id="ywMon-VLnov4TyRL90F_-6" value="auth.php" style="whiteSpace=wrap;html=1;align=center;" vertex="1" parent="1">
          <mxGeometry x="60" y="200" width="100" height="40" as="geometry" />
        </mxCell>
        <mxCell id="ywMon-VLnov4TyRL90F_-15" style="edgeStyle=orthogonalEdgeStyle;rounded=0;orthogonalLoop=1;jettySize=auto;html=1;exitX=0.5;exitY=1;exitDx=0;exitDy=0;entryX=0.5;entryY=0;entryDx=0;entryDy=0;startArrow=classic;startFill=1;endArrow=none;endFill=0;" edge="1" parent="1" source="ywMon-VLnov4TyRL90F_-7" target="ywMon-VLnov4TyRL90F_-3">
          <mxGeometry relative="1" as="geometry" />
        </mxCell>
        <mxCell id="ywMon-VLnov4TyRL90F_-7" value="catalogo.php" style="whiteSpace=wrap;html=1;align=center;" vertex="1" parent="1">
          <mxGeometry x="410" y="200" width="100" height="40" as="geometry" />
        </mxCell>
        <mxCell id="ywMon-VLnov4TyRL90F_-19" style="edgeStyle=orthogonalEdgeStyle;rounded=0;orthogonalLoop=1;jettySize=auto;html=1;exitX=1;exitY=0.5;exitDx=0;exitDy=0;entryX=0;entryY=0.5;entryDx=0;entryDy=0;startArrow=classic;startFill=1;" edge="1" parent="1" source="ywMon-VLnov4TyRL90F_-8" target="ywMon-VLnov4TyRL90F_-7">
          <mxGeometry relative="1" as="geometry" />
        </mxCell>
        <mxCell id="ywMon-VLnov4TyRL90F_-20" style="edgeStyle=orthogonalEdgeStyle;rounded=0;orthogonalLoop=1;jettySize=auto;html=1;exitX=0;exitY=0.5;exitDx=0;exitDy=0;entryX=1;entryY=0.5;entryDx=0;entryDy=0;startArrow=classic;startFill=1;" edge="1" parent="1" source="ywMon-VLnov4TyRL90F_-8" target="ywMon-VLnov4TyRL90F_-6">
          <mxGeometry relative="1" as="geometry" />
        </mxCell>
        <mxCell id="ywMon-VLnov4TyRL90F_-8" value="login.php" style="whiteSpace=wrap;html=1;align=center;" vertex="1" parent="1">
          <mxGeometry x="210" y="200" width="100" height="40" as="geometry" />
        </mxCell>
        <mxCell id="ywMon-VLnov4TyRL90F_-12" style="edgeStyle=orthogonalEdgeStyle;rounded=0;orthogonalLoop=1;jettySize=auto;html=1;exitX=0.5;exitY=1;exitDx=0;exitDy=0;entryX=0.5;entryY=0;entryDx=0;entryDy=0;startArrow=classic;startFill=1;" edge="1" parent="1" source="ywMon-VLnov4TyRL90F_-9" target="ywMon-VLnov4TyRL90F_-8">
          <mxGeometry relative="1" as="geometry" />
        </mxCell>
        <mxCell id="ywMon-VLnov4TyRL90F_-14" style="edgeStyle=orthogonalEdgeStyle;rounded=0;orthogonalLoop=1;jettySize=auto;html=1;exitX=0.75;exitY=1;exitDx=0;exitDy=0;entryX=0.5;entryY=0;entryDx=0;entryDy=0;startArrow=classic;startFill=1;" edge="1" parent="1" source="ywMon-VLnov4TyRL90F_-9" target="ywMon-VLnov4TyRL90F_-7">
          <mxGeometry relative="1" as="geometry" />
        </mxCell>
        <mxCell id="ywMon-VLnov4TyRL90F_-9" value="index.php" style="whiteSpace=wrap;html=1;align=center;" vertex="1" parent="1">
          <mxGeometry x="325" y="40" width="100" height="40" as="geometry" />
        </mxCell>
        <mxCell id="ywMon-VLnov4TyRL90F_-33" style="edgeStyle=orthogonalEdgeStyle;rounded=0;orthogonalLoop=1;jettySize=auto;html=1;exitX=0.5;exitY=0;exitDx=0;exitDy=0;entryX=0.5;entryY=1;entryDx=0;entryDy=0;fillColor=#d80073;strokeColor=#A50040;" edge="1" parent="1" source="ywMon-VLnov4TyRL90F_-24" target="ywMon-VLnov4TyRL90F_-29">
          <mxGeometry relative="1" as="geometry" />
        </mxCell>
        <mxCell id="ywMon-VLnov4TyRL90F_-45" style="edgeStyle=orthogonalEdgeStyle;rounded=0;orthogonalLoop=1;jettySize=auto;html=1;exitX=0;exitY=0.25;exitDx=0;exitDy=0;entryX=1;entryY=0.5;entryDx=0;entryDy=0;fillColor=#d80073;strokeColor=#A50040;startArrow=classic;startFill=1;" edge="1" parent="1" source="ywMon-VLnov4TyRL90F_-24" target="ywMon-VLnov4TyRL90F_-40">
          <mxGeometry relative="1" as="geometry" />
        </mxCell>
        <mxCell id="ywMon-VLnov4TyRL90F_-46" style="edgeStyle=orthogonalEdgeStyle;rounded=0;orthogonalLoop=1;jettySize=auto;html=1;exitX=0;exitY=0.5;exitDx=0;exitDy=0;entryX=1;entryY=0.5;entryDx=0;entryDy=0;startArrow=classic;startFill=1;fillColor=#d80073;strokeColor=#A50040;" edge="1" parent="1" source="ywMon-VLnov4TyRL90F_-24" target="ywMon-VLnov4TyRL90F_-42">
          <mxGeometry relative="1" as="geometry" />
        </mxCell>
        <mxCell id="ywMon-VLnov4TyRL90F_-48" style="edgeStyle=orthogonalEdgeStyle;rounded=0;orthogonalLoop=1;jettySize=auto;html=1;exitX=0;exitY=0.75;exitDx=0;exitDy=0;entryX=1;entryY=0.5;entryDx=0;entryDy=0;startArrow=classic;startFill=1;fillColor=#d80073;strokeColor=#A50040;" edge="1" parent="1" source="ywMon-VLnov4TyRL90F_-24" target="ywMon-VLnov4TyRL90F_-43">
          <mxGeometry relative="1" as="geometry">
            <Array as="points">
              <mxPoint x="-260" y="150" />
              <mxPoint x="-260" y="190" />
            </Array>
          </mxGeometry>
        </mxCell>
        <mxCell id="ywMon-VLnov4TyRL90F_-24" value="homerapp.php" style="whiteSpace=wrap;html=1;align=center;fillColor=#d80073;fontColor=#ffffff;strokeColor=#A50040;" vertex="1" parent="1">
          <mxGeometry x="-180" y="120" width="100" height="40" as="geometry" />
        </mxCell>
        <mxCell id="ywMon-VLnov4TyRL90F_-25" value="connessione.php" style="whiteSpace=wrap;html=1;align=center;" vertex="1" parent="1">
          <mxGeometry x="600" y="40" width="100" height="40" as="geometry" />
        </mxCell>
        <mxCell id="ywMon-VLnov4TyRL90F_-37" style="edgeStyle=orthogonalEdgeStyle;rounded=0;orthogonalLoop=1;jettySize=auto;html=1;exitX=1;exitY=0.5;exitDx=0;exitDy=0;" edge="1" parent="1" source="ywMon-VLnov4TyRL90F_-29">
          <mxGeometry relative="1" as="geometry">
            <mxPoint x="320" y="60" as="targetPoint" />
          </mxGeometry>
        </mxCell>
        <mxCell id="ywMon-VLnov4TyRL90F_-29" value="logout.php" style="whiteSpace=wrap;html=1;align=center;" vertex="1" parent="1">
          <mxGeometry x="-180" y="40" width="100" height="40" as="geometry" />
        </mxCell>
        <mxCell id="ywMon-VLnov4TyRL90F_-64" style="edgeStyle=orthogonalEdgeStyle;rounded=0;orthogonalLoop=1;jettySize=auto;html=1;exitX=1;exitY=0.5;exitDx=0;exitDy=0;entryX=0.75;entryY=0;entryDx=0;entryDy=0;fillColor=#d80073;strokeColor=#A50040;" edge="1" parent="1" source="ywMon-VLnov4TyRL90F_-39" target="ywMon-VLnov4TyRL90F_-29">
          <mxGeometry relative="1" as="geometry" />
        </mxCell>
        <mxCell id="ywMon-VLnov4TyRL90F_-69" style="edgeStyle=orthogonalEdgeStyle;rounded=0;orthogonalLoop=1;jettySize=auto;html=1;exitX=0.25;exitY=1;exitDx=0;exitDy=0;entryX=1;entryY=1;entryDx=0;entryDy=0;fillColor=#d80073;strokeColor=#A50040;" edge="1" parent="1" source="ywMon-VLnov4TyRL90F_-39" target="ywMon-VLnov4TyRL90F_-42">
          <mxGeometry relative="1" as="geometry" />
        </mxCell>
        <mxCell id="ywMon-VLnov4TyRL90F_-70" style="edgeStyle=orthogonalEdgeStyle;rounded=0;orthogonalLoop=1;jettySize=auto;html=1;exitX=0.5;exitY=1;exitDx=0;exitDy=0;entryX=1;entryY=0;entryDx=0;entryDy=0;fillColor=#d80073;strokeColor=#A50040;" edge="1" parent="1" source="ywMon-VLnov4TyRL90F_-39" target="ywMon-VLnov4TyRL90F_-43">
          <mxGeometry relative="1" as="geometry">
            <Array as="points">
              <mxPoint x="-300" y="-80" />
              <mxPoint x="-300" y="150" />
              <mxPoint x="-365" y="150" />
            </Array>
          </mxGeometry>
        </mxCell>
        <mxCell id="ywMon-VLnov4TyRL90F_-39" value="modificaauto.php" style="whiteSpace=wrap;html=1;align=center;fillColor=#d80073;fontColor=#ffffff;strokeColor=#A50040;" vertex="1" parent="1">
          <mxGeometry x="-310" y="-120" width="100" height="40" as="geometry" />
        </mxCell>
        <mxCell id="ywMon-VLnov4TyRL90F_-59" style="edgeStyle=orthogonalEdgeStyle;rounded=0;orthogonalLoop=1;jettySize=auto;html=1;exitX=0.5;exitY=1;exitDx=0;exitDy=0;entryX=0.75;entryY=0;entryDx=0;entryDy=0;fillColor=#d80073;strokeColor=#A50040;startArrow=classic;startFill=1;" edge="1" parent="1" source="ywMon-VLnov4TyRL90F_-40" target="ywMon-VLnov4TyRL90F_-42">
          <mxGeometry relative="1" as="geometry" />
        </mxCell>
        <mxCell id="ywMon-VLnov4TyRL90F_-62" style="edgeStyle=orthogonalEdgeStyle;rounded=0;orthogonalLoop=1;jettySize=auto;html=1;exitX=0.5;exitY=0;exitDx=0;exitDy=0;entryX=1;entryY=0.5;entryDx=0;entryDy=0;fillColor=#d80073;strokeColor=#A50040;startArrow=classic;startFill=1;" edge="1" parent="1" source="ywMon-VLnov4TyRL90F_-40" target="ywMon-VLnov4TyRL90F_-60">
          <mxGeometry relative="1" as="geometry" />
        </mxCell>
        <mxCell id="ywMon-VLnov4TyRL90F_-63" style="edgeStyle=orthogonalEdgeStyle;rounded=0;orthogonalLoop=1;jettySize=auto;html=1;exitX=0.75;exitY=0;exitDx=0;exitDy=0;entryX=0;entryY=0.5;entryDx=0;entryDy=0;fillColor=#d80073;strokeColor=#A50040;startArrow=classic;startFill=1;" edge="1" parent="1" source="ywMon-VLnov4TyRL90F_-40" target="ywMon-VLnov4TyRL90F_-39">
          <mxGeometry relative="1" as="geometry" />
        </mxCell>
        <mxCell id="ywMon-VLnov4TyRL90F_-68" style="edgeStyle=orthogonalEdgeStyle;rounded=0;orthogonalLoop=1;jettySize=auto;html=1;exitX=1;exitY=0.25;exitDx=0;exitDy=0;entryX=0.25;entryY=0;entryDx=0;entryDy=0;fillColor=#d80073;strokeColor=#A50040;" edge="1" parent="1" source="ywMon-VLnov4TyRL90F_-40" target="ywMon-VLnov4TyRL90F_-29">
          <mxGeometry relative="1" as="geometry" />
        </mxCell>
        <mxCell id="ywMon-VLnov4TyRL90F_-40" value="catalogorapp.php" style="whiteSpace=wrap;html=1;align=center;fillColor=#d80073;fontColor=#ffffff;strokeColor=#A50040;" vertex="1" parent="1">
          <mxGeometry x="-420" y="-40" width="100" height="40" as="geometry" />
        </mxCell>
        <mxCell id="ywMon-VLnov4TyRL90F_-41" value="addauto.php" style="whiteSpace=wrap;html=1;align=center;fillColor=#d80073;fontColor=#ffffff;strokeColor=#A50040;" vertex="1" parent="1">
          <mxGeometry x="-630" y="40" width="100" height="40" as="geometry" />
        </mxCell>
        <mxCell id="ywMon-VLnov4TyRL90F_-61" style="edgeStyle=orthogonalEdgeStyle;rounded=0;orthogonalLoop=1;jettySize=auto;html=1;exitX=0;exitY=0.5;exitDx=0;exitDy=0;entryX=1;entryY=0.5;entryDx=0;entryDy=0;fillColor=#d80073;strokeColor=#A50040;startArrow=classic;startFill=1;" edge="1" parent="1" source="ywMon-VLnov4TyRL90F_-42" target="ywMon-VLnov4TyRL90F_-41">
          <mxGeometry relative="1" as="geometry" />
        </mxCell>
        <mxCell id="ywMon-VLnov4TyRL90F_-67" style="edgeStyle=orthogonalEdgeStyle;rounded=0;orthogonalLoop=1;jettySize=auto;html=1;exitX=1;exitY=0.25;exitDx=0;exitDy=0;entryX=0;entryY=0;entryDx=0;entryDy=0;fillColor=#d80073;strokeColor=#A50040;" edge="1" parent="1" source="ywMon-VLnov4TyRL90F_-42" target="ywMon-VLnov4TyRL90F_-29">
          <mxGeometry relative="1" as="geometry" />
        </mxCell>
        <mxCell id="ywMon-VLnov4TyRL90F_-42" value="aggiungiauto.php" style="whiteSpace=wrap;html=1;align=center;fillColor=#d80073;fontColor=#ffffff;strokeColor=#A50040;" vertex="1" parent="1">
          <mxGeometry x="-440" y="40" width="100" height="40" as="geometry" />
        </mxCell>
        <mxCell id="ywMon-VLnov4TyRL90F_-57" style="edgeStyle=orthogonalEdgeStyle;rounded=0;orthogonalLoop=1;jettySize=auto;html=1;exitX=0;exitY=0;exitDx=0;exitDy=0;entryX=0;entryY=0.5;entryDx=0;entryDy=0;fillColor=#d80073;strokeColor=#A50040;startArrow=classic;startFill=1;" edge="1" parent="1" source="ywMon-VLnov4TyRL90F_-43" target="ywMon-VLnov4TyRL90F_-40">
          <mxGeometry relative="1" as="geometry" />
        </mxCell>
        <mxCell id="ywMon-VLnov4TyRL90F_-58" style="edgeStyle=orthogonalEdgeStyle;rounded=0;orthogonalLoop=1;jettySize=auto;html=1;exitX=0.75;exitY=0;exitDx=0;exitDy=0;entryX=0.5;entryY=1;entryDx=0;entryDy=0;startArrow=classic;startFill=1;fillColor=#d80073;strokeColor=#A50040;" edge="1" parent="1" source="ywMon-VLnov4TyRL90F_-43" target="ywMon-VLnov4TyRL90F_-42">
          <mxGeometry relative="1" as="geometry" />
        </mxCell>
        <mxCell id="ywMon-VLnov4TyRL90F_-65" style="edgeStyle=orthogonalEdgeStyle;rounded=0;orthogonalLoop=1;jettySize=auto;html=1;exitX=1;exitY=0.25;exitDx=0;exitDy=0;entryX=0;entryY=0.75;entryDx=0;entryDy=0;fillColor=#d80073;strokeColor=#A50040;" edge="1" parent="1" source="ywMon-VLnov4TyRL90F_-43" target="ywMon-VLnov4TyRL90F_-29">
          <mxGeometry relative="1" as="geometry">
            <Array as="points">
              <mxPoint x="-270" y="180" />
              <mxPoint x="-270" y="70" />
            </Array>
          </mxGeometry>
        </mxCell>
        <mxCell id="ywMon-VLnov4TyRL90F_-43" value="listaprenotazioni.php" style="whiteSpace=wrap;html=1;align=center;fillColor=#d80073;fontColor=#ffffff;strokeColor=#A50040;" vertex="1" parent="1">
          <mxGeometry x="-485" y="170" width="120" height="40" as="geometry" />
        </mxCell>
        <mxCell id="ywMon-VLnov4TyRL90F_-60" value="eliminaauto.php" style="whiteSpace=wrap;html=1;align=center;fillColor=#60a917;fontColor=#ffffff;strokeColor=#2D7600;" vertex="1" parent="1">
          <mxGeometry x="-620" y="-120" width="100" height="40" as="geometry" />
        </mxCell>
        <mxCell id="ywMon-VLnov4TyRL90F_-84" style="edgeStyle=orthogonalEdgeStyle;rounded=0;orthogonalLoop=1;jettySize=auto;html=1;exitX=0.75;exitY=0;exitDx=0;exitDy=0;entryX=0.75;entryY=1;entryDx=0;entryDy=0;fillColor=#0050ef;strokeColor=#001DBC;startArrow=classic;startFill=1;" edge="1" parent="1" source="ywMon-VLnov4TyRL90F_-71" target="ywMon-VLnov4TyRL90F_-76">
          <mxGeometry relative="1" as="geometry" />
        </mxCell>
        <mxCell id="ywMon-VLnov4TyRL90F_-92" style="edgeStyle=orthogonalEdgeStyle;rounded=0;orthogonalLoop=1;jettySize=auto;html=1;exitX=1;exitY=0.5;exitDx=0;exitDy=0;entryX=1;entryY=0.75;entryDx=0;entryDy=0;fillColor=#0050ef;strokeColor=#001DBC;" edge="1" parent="1" source="ywMon-VLnov4TyRL90F_-71" target="ywMon-VLnov4TyRL90F_-29">
          <mxGeometry relative="1" as="geometry" />
        </mxCell>
        <mxCell id="ywMon-VLnov4TyRL90F_-95" style="edgeStyle=orthogonalEdgeStyle;rounded=0;orthogonalLoop=1;jettySize=auto;html=1;exitX=0;exitY=0.5;exitDx=0;exitDy=0;entryX=1;entryY=0.5;entryDx=0;entryDy=0;fillColor=#0050ef;strokeColor=#001DBC;startArrow=classic;startFill=1;" edge="1" parent="1" source="ywMon-VLnov4TyRL90F_-71" target="ywMon-VLnov4TyRL90F_-72">
          <mxGeometry relative="1" as="geometry" />
        </mxCell>
        <mxCell id="ywMon-VLnov4TyRL90F_-71" value="prenotazione.php" style="whiteSpace=wrap;html=1;align=center;fillColor=#0050ef;fontColor=#ffffff;strokeColor=#001DBC;" vertex="1" parent="1">
          <mxGeometry x="-475" y="320" width="100" height="40" as="geometry" />
        </mxCell>
        <mxCell id="ywMon-VLnov4TyRL90F_-72" value="prenotaz.php" style="whiteSpace=wrap;html=1;align=center;fillColor=#0050ef;fontColor=#ffffff;strokeColor=#001DBC;" vertex="1" parent="1">
          <mxGeometry x="-830" y="270" width="100" height="40" as="geometry" />
        </mxCell>
        <mxCell id="ywMon-VLnov4TyRL90F_-96" style="edgeStyle=orthogonalEdgeStyle;rounded=0;orthogonalLoop=1;jettySize=auto;html=1;exitX=1;exitY=0;exitDx=0;exitDy=0;entryX=0.25;entryY=1;entryDx=0;entryDy=0;fillColor=#0050ef;strokeColor=#001DBC;" edge="1" parent="1" source="ywMon-VLnov4TyRL90F_-73" target="ywMon-VLnov4TyRL90F_-4">
          <mxGeometry relative="1" as="geometry">
            <Array as="points">
              <mxPoint x="-590" y="230" />
              <mxPoint x="-340" y="230" />
              <mxPoint x="-340" y="270" />
              <mxPoint x="-155" y="270" />
            </Array>
          </mxGeometry>
        </mxCell>
        <mxCell id="ywMon-VLnov4TyRL90F_-97" style="edgeStyle=orthogonalEdgeStyle;rounded=0;orthogonalLoop=1;jettySize=auto;html=1;exitX=0;exitY=0.5;exitDx=0;exitDy=0;entryX=0.75;entryY=0;entryDx=0;entryDy=0;fillColor=#0050ef;strokeColor=#001DBC;" edge="1" parent="1" source="ywMon-VLnov4TyRL90F_-73" target="ywMon-VLnov4TyRL90F_-72">
          <mxGeometry relative="1" as="geometry" />
        </mxCell>
        <mxCell id="ywMon-VLnov4TyRL90F_-98" style="edgeStyle=orthogonalEdgeStyle;rounded=0;orthogonalLoop=1;jettySize=auto;html=1;exitX=1;exitY=0.75;exitDx=0;exitDy=0;entryX=0;entryY=0.25;entryDx=0;entryDy=0;fillColor=#0050ef;strokeColor=#001DBC;" edge="1" parent="1" source="ywMon-VLnov4TyRL90F_-73" target="ywMon-VLnov4TyRL90F_-71">
          <mxGeometry relative="1" as="geometry">
            <Array as="points">
              <mxPoint x="-540" y="240" />
              <mxPoint x="-540" y="330" />
            </Array>
          </mxGeometry>
        </mxCell>
        <mxCell id="ywMon-VLnov4TyRL90F_-99" style="edgeStyle=orthogonalEdgeStyle;rounded=0;orthogonalLoop=1;jettySize=auto;html=1;exitX=0.75;exitY=1;exitDx=0;exitDy=0;entryX=0.25;entryY=0;entryDx=0;entryDy=0;fillColor=#0050ef;strokeColor=#001DBC;" edge="1" parent="1" source="ywMon-VLnov4TyRL90F_-73" target="ywMon-VLnov4TyRL90F_-77">
          <mxGeometry relative="1" as="geometry">
            <Array as="points">
              <mxPoint x="-620" y="380" />
              <mxPoint x="-450" y="380" />
            </Array>
          </mxGeometry>
        </mxCell>
        <mxCell id="ywMon-VLnov4TyRL90F_-100" style="edgeStyle=orthogonalEdgeStyle;rounded=0;orthogonalLoop=1;jettySize=auto;html=1;exitX=0.25;exitY=0;exitDx=0;exitDy=0;entryX=1;entryY=0;entryDx=0;entryDy=0;fillColor=#0050ef;strokeColor=#001DBC;" edge="1" parent="1" source="ywMon-VLnov4TyRL90F_-73" target="ywMon-VLnov4TyRL90F_-29">
          <mxGeometry relative="1" as="geometry">
            <Array as="points">
              <mxPoint x="-680" y="-70" />
              <mxPoint x="-80" y="-70" />
            </Array>
          </mxGeometry>
        </mxCell>
        <mxCell id="ywMon-VLnov4TyRL90F_-73" value="prenotaincontro.php" style="whiteSpace=wrap;html=1;align=center;fillColor=#0050ef;fontColor=#ffffff;strokeColor=#001DBC;" vertex="1" parent="1">
          <mxGeometry x="-710" y="210" width="120" height="40" as="geometry" />
        </mxCell>
        <mxCell id="ywMon-VLnov4TyRL90F_-74" value="modclient.php" style="whiteSpace=wrap;html=1;align=center;fillColor=#0050ef;fontColor=#ffffff;strokeColor=#001DBC;" vertex="1" parent="1">
          <mxGeometry x="-740" y="350" width="100" height="40" as="geometry" />
        </mxCell>
        <mxCell id="ywMon-VLnov4TyRL90F_-75" value="eliminaincontro.php" style="whiteSpace=wrap;html=1;align=center;fillColor=#0050ef;fontColor=#ffffff;strokeColor=#001DBC;" vertex="1" parent="1">
          <mxGeometry x="-730" y="430" width="120" height="40" as="geometry" />
        </mxCell>
        <mxCell id="ywMon-VLnov4TyRL90F_-91" style="edgeStyle=orthogonalEdgeStyle;rounded=0;orthogonalLoop=1;jettySize=auto;html=1;exitX=1;exitY=0.5;exitDx=0;exitDy=0;entryX=0.25;entryY=1;entryDx=0;entryDy=0;fillColor=#0050ef;strokeColor=#001DBC;" edge="1" parent="1" source="ywMon-VLnov4TyRL90F_-76" target="ywMon-VLnov4TyRL90F_-29">
          <mxGeometry relative="1" as="geometry">
            <Array as="points">
              <mxPoint x="-220" y="260" />
              <mxPoint x="-220" y="90" />
              <mxPoint x="-155" y="90" />
            </Array>
          </mxGeometry>
        </mxCell>
        <mxCell id="ywMon-VLnov4TyRL90F_-94" style="edgeStyle=orthogonalEdgeStyle;rounded=0;orthogonalLoop=1;jettySize=auto;html=1;exitX=0;exitY=0.25;exitDx=0;exitDy=0;entryX=1;entryY=0.25;entryDx=0;entryDy=0;fillColor=#0050ef;strokeColor=#001DBC;startArrow=classic;startFill=1;" edge="1" parent="1" source="ywMon-VLnov4TyRL90F_-76" target="ywMon-VLnov4TyRL90F_-73">
          <mxGeometry relative="1" as="geometry" />
        </mxCell>
        <mxCell id="ywMon-VLnov4TyRL90F_-76" value="catalogoclienti.php" style="whiteSpace=wrap;html=1;align=center;fillColor=#0050ef;fontColor=#ffffff;strokeColor=#001DBC;" vertex="1" parent="1">
          <mxGeometry x="-475" y="240" width="100" height="40" as="geometry" />
        </mxCell>
        <mxCell id="ywMon-VLnov4TyRL90F_-83" style="edgeStyle=orthogonalEdgeStyle;rounded=0;orthogonalLoop=1;jettySize=auto;html=1;exitX=0.75;exitY=0;exitDx=0;exitDy=0;entryX=0.75;entryY=1;entryDx=0;entryDy=0;fillColor=#0050ef;strokeColor=#001DBC;startArrow=classic;startFill=1;" edge="1" parent="1" source="ywMon-VLnov4TyRL90F_-77" target="ywMon-VLnov4TyRL90F_-71">
          <mxGeometry relative="1" as="geometry" />
        </mxCell>
        <mxCell id="ywMon-VLnov4TyRL90F_-86" style="edgeStyle=orthogonalEdgeStyle;rounded=0;orthogonalLoop=1;jettySize=auto;html=1;exitX=0;exitY=0.25;exitDx=0;exitDy=0;entryX=0;entryY=0.75;entryDx=0;entryDy=0;fillColor=#0050ef;strokeColor=#001DBC;startArrow=classic;startFill=1;" edge="1" parent="1" source="ywMon-VLnov4TyRL90F_-77" target="ywMon-VLnov4TyRL90F_-76">
          <mxGeometry relative="1" as="geometry" />
        </mxCell>
        <mxCell id="ywMon-VLnov4TyRL90F_-89" style="edgeStyle=orthogonalEdgeStyle;rounded=0;orthogonalLoop=1;jettySize=auto;html=1;exitX=0;exitY=0.5;exitDx=0;exitDy=0;entryX=1;entryY=0.5;entryDx=0;entryDy=0;startArrow=classic;startFill=1;fillColor=#0050ef;strokeColor=#001DBC;" edge="1" parent="1" source="ywMon-VLnov4TyRL90F_-77" target="ywMon-VLnov4TyRL90F_-74">
          <mxGeometry relative="1" as="geometry" />
        </mxCell>
        <mxCell id="ywMon-VLnov4TyRL90F_-90" style="edgeStyle=orthogonalEdgeStyle;rounded=0;orthogonalLoop=1;jettySize=auto;html=1;exitX=0;exitY=0.75;exitDx=0;exitDy=0;entryX=1;entryY=0.5;entryDx=0;entryDy=0;startArrow=classic;startFill=1;fillColor=#0050ef;strokeColor=#001DBC;" edge="1" parent="1" source="ywMon-VLnov4TyRL90F_-77" target="ywMon-VLnov4TyRL90F_-75">
          <mxGeometry relative="1" as="geometry" />
        </mxCell>
        <mxCell id="ywMon-VLnov4TyRL90F_-93" style="edgeStyle=orthogonalEdgeStyle;rounded=0;orthogonalLoop=1;jettySize=auto;html=1;exitX=1;exitY=0.5;exitDx=0;exitDy=0;entryX=0.5;entryY=0;entryDx=0;entryDy=0;fillColor=#0050ef;strokeColor=#001DBC;" edge="1" parent="1" source="ywMon-VLnov4TyRL90F_-77" target="ywMon-VLnov4TyRL90F_-29">
          <mxGeometry relative="1" as="geometry">
            <Array as="points">
              <mxPoint x="-320" y="420" />
              <mxPoint x="-320" y="10" />
              <mxPoint x="-130" y="10" />
            </Array>
          </mxGeometry>
        </mxCell>
        <mxCell id="ywMon-VLnov4TyRL90F_-77" value="account.php" style="whiteSpace=wrap;html=1;align=center;fillColor=#0050ef;fontColor=#ffffff;strokeColor=#001DBC;" vertex="1" parent="1">
          <mxGeometry x="-475" y="400" width="100" height="40" as="geometry" />
        </mxCell>
        <mxCell id="ywMon-VLnov4TyRL90F_-101" value="modauto.php" style="whiteSpace=wrap;html=1;align=center;fillColor=#60a917;fontColor=#ffffff;strokeColor=#2D7600;" vertex="1" parent="1">
          <mxGeometry x="-510" y="760" width="100" height="40" as="geometry" />
        </mxCell>
        <mxCell id="ywMon-VLnov4TyRL90F_-117" style="edgeStyle=orthogonalEdgeStyle;rounded=0;orthogonalLoop=1;jettySize=auto;html=1;exitX=0.5;exitY=1;exitDx=0;exitDy=0;entryX=0.5;entryY=0;entryDx=0;entryDy=0;fillColor=#60a917;strokeColor=#2D7600;startArrow=classic;startFill=1;" edge="1" parent="1" source="ywMon-VLnov4TyRL90F_-102" target="ywMon-VLnov4TyRL90F_-104">
          <mxGeometry relative="1" as="geometry" />
        </mxCell>
        <mxCell id="ywMon-VLnov4TyRL90F_-118" style="edgeStyle=orthogonalEdgeStyle;rounded=0;orthogonalLoop=1;jettySize=auto;html=1;exitX=0.75;exitY=1;exitDx=0;exitDy=0;entryX=0.5;entryY=0;entryDx=0;entryDy=0;fillColor=#60a917;strokeColor=#2D7600;startArrow=classic;startFill=1;" edge="1" parent="1" source="ywMon-VLnov4TyRL90F_-102" target="ywMon-VLnov4TyRL90F_-109">
          <mxGeometry relative="1" as="geometry" />
        </mxCell>
        <mxCell id="ywMon-VLnov4TyRL90F_-129" style="edgeStyle=orthogonalEdgeStyle;rounded=0;orthogonalLoop=1;jettySize=auto;html=1;exitX=1;exitY=0.5;exitDx=0;exitDy=0;entryX=0;entryY=0.5;entryDx=0;entryDy=0;startArrow=classic;startFill=1;fillColor=#60a917;strokeColor=#2D7600;" edge="1" parent="1" source="ywMon-VLnov4TyRL90F_-102" target="ywMon-VLnov4TyRL90F_-103">
          <mxGeometry relative="1" as="geometry" />
        </mxCell>
        <mxCell id="ywMon-VLnov4TyRL90F_-130" style="edgeStyle=orthogonalEdgeStyle;rounded=0;orthogonalLoop=1;jettySize=auto;html=1;exitX=0.75;exitY=0;exitDx=0;exitDy=0;entryX=0.25;entryY=0;entryDx=0;entryDy=0;fillColor=#60a917;strokeColor=#2D7600;startArrow=classic;startFill=1;" edge="1" parent="1" source="ywMon-VLnov4TyRL90F_-102" target="ywMon-VLnov4TyRL90F_-106">
          <mxGeometry relative="1" as="geometry" />
        </mxCell>
        <mxCell id="ywMon-VLnov4TyRL90F_-102" value="listarapp.php" style="whiteSpace=wrap;html=1;align=center;fillColor=#60a917;fontColor=#ffffff;strokeColor=#2D7600;" vertex="1" parent="1">
          <mxGeometry x="-240" y="520" width="100" height="40" as="geometry" />
        </mxCell>
        <mxCell id="ywMon-VLnov4TyRL90F_-131" style="edgeStyle=orthogonalEdgeStyle;rounded=0;orthogonalLoop=1;jettySize=auto;html=1;exitX=1;exitY=0.5;exitDx=0;exitDy=0;entryX=0;entryY=0.5;entryDx=0;entryDy=0;startArrow=classic;startFill=1;fillColor=#60a917;strokeColor=#2D7600;" edge="1" parent="1" source="ywMon-VLnov4TyRL90F_-103" target="ywMon-VLnov4TyRL90F_-106">
          <mxGeometry relative="1" as="geometry" />
        </mxCell>
        <mxCell id="ywMon-VLnov4TyRL90F_-103" value="listaprenotazioni.php" style="whiteSpace=wrap;html=1;align=center;fillColor=#60a917;fontColor=#ffffff;strokeColor=#2D7600;" vertex="1" parent="1">
          <mxGeometry x="-100" y="520" width="120" height="40" as="geometry" />
        </mxCell>
        <mxCell id="ywMon-VLnov4TyRL90F_-104" value="eliminarapp.php" style="whiteSpace=wrap;html=1;align=center;fillColor=#60a917;fontColor=#ffffff;strokeColor=#2D7600;" vertex="1" parent="1">
          <mxGeometry x="-300" y="680" width="100" height="40" as="geometry" />
        </mxCell>
        <mxCell id="ywMon-VLnov4TyRL90F_-114" style="edgeStyle=orthogonalEdgeStyle;rounded=0;orthogonalLoop=1;jettySize=auto;html=1;exitX=0;exitY=0.5;exitDx=0;exitDy=0;entryX=0;entryY=0.5;entryDx=0;entryDy=0;fillColor=#60a917;strokeColor=#2D7600;startArrow=classic;startFill=1;" edge="1" parent="1" source="ywMon-VLnov4TyRL90F_-105" target="ywMon-VLnov4TyRL90F_-60">
          <mxGeometry relative="1" as="geometry">
            <Array as="points">
              <mxPoint x="-850" y="540" />
              <mxPoint x="-850" y="-100" />
            </Array>
          </mxGeometry>
        </mxCell>
        <mxCell id="ywMon-VLnov4TyRL90F_-115" style="edgeStyle=orthogonalEdgeStyle;rounded=0;orthogonalLoop=1;jettySize=auto;html=1;exitX=0.5;exitY=1;exitDx=0;exitDy=0;entryX=0.5;entryY=0;entryDx=0;entryDy=0;fillColor=#60a917;strokeColor=#2D7600;startArrow=classic;startFill=1;" edge="1" parent="1" source="ywMon-VLnov4TyRL90F_-105" target="ywMon-VLnov4TyRL90F_-110">
          <mxGeometry relative="1" as="geometry" />
        </mxCell>
        <mxCell id="ywMon-VLnov4TyRL90F_-126" style="edgeStyle=orthogonalEdgeStyle;rounded=0;orthogonalLoop=1;jettySize=auto;html=1;exitX=1;exitY=0.5;exitDx=0;exitDy=0;entryX=0;entryY=0.5;entryDx=0;entryDy=0;fillColor=#60a917;strokeColor=#2D7600;startArrow=classic;startFill=1;" edge="1" parent="1" source="ywMon-VLnov4TyRL90F_-105" target="ywMon-VLnov4TyRL90F_-102">
          <mxGeometry relative="1" as="geometry" />
        </mxCell>
        <mxCell id="ywMon-VLnov4TyRL90F_-105" value="catalogoadmin.php" style="whiteSpace=wrap;html=1;align=center;fillColor=#60a917;fontColor=#ffffff;strokeColor=#2D7600;" vertex="1" parent="1">
          <mxGeometry x="-400" y="520" width="120" height="40" as="geometry" />
        </mxCell>
        <mxCell id="ywMon-VLnov4TyRL90F_-125" style="edgeStyle=orthogonalEdgeStyle;rounded=0;orthogonalLoop=1;jettySize=auto;html=1;exitX=0.5;exitY=1;exitDx=0;exitDy=0;entryX=0.5;entryY=0;entryDx=0;entryDy=0;fillColor=#60a917;strokeColor=#2D7600;startArrow=classic;startFill=1;" edge="1" parent="1" source="ywMon-VLnov4TyRL90F_-106" target="ywMon-VLnov4TyRL90F_-107">
          <mxGeometry relative="1" as="geometry" />
        </mxCell>
        <mxCell id="ywMon-VLnov4TyRL90F_-106" value="aggiungirapp.php" style="whiteSpace=wrap;html=1;align=center;fillColor=#60a917;fontColor=#ffffff;strokeColor=#2D7600;" vertex="1" parent="1">
          <mxGeometry x="60" y="520" width="100" height="40" as="geometry" />
        </mxCell>
        <mxCell id="ywMon-VLnov4TyRL90F_-107" value="addrapp.php" style="whiteSpace=wrap;html=1;align=center;fillColor=#60a917;fontColor=#ffffff;strokeColor=#2D7600;" vertex="1" parent="1">
          <mxGeometry x="60" y="640" width="100" height="40" as="geometry" />
        </mxCell>
        <mxCell id="ywMon-VLnov4TyRL90F_-108" value="modrapp.php" style="whiteSpace=wrap;html=1;align=center;fillColor=#60a917;fontColor=#ffffff;strokeColor=#2D7600;" vertex="1" parent="1">
          <mxGeometry x="-170" y="760" width="100" height="40" as="geometry" />
        </mxCell>
        <mxCell id="ywMon-VLnov4TyRL90F_-119" style="edgeStyle=orthogonalEdgeStyle;rounded=0;orthogonalLoop=1;jettySize=auto;html=1;exitX=0.5;exitY=1;exitDx=0;exitDy=0;entryX=0.5;entryY=0;entryDx=0;entryDy=0;fillColor=#60a917;strokeColor=#2D7600;startArrow=classic;startFill=1;" edge="1" parent="1" source="ywMon-VLnov4TyRL90F_-109" target="ywMon-VLnov4TyRL90F_-108">
          <mxGeometry relative="1" as="geometry" />
        </mxCell>
        <mxCell id="ywMon-VLnov4TyRL90F_-133" style="edgeStyle=orthogonalEdgeStyle;rounded=0;orthogonalLoop=1;jettySize=auto;html=1;exitX=1;exitY=0.25;exitDx=0;exitDy=0;entryX=1;entryY=0.25;entryDx=0;entryDy=0;fillColor=#60a917;strokeColor=#2D7600;" edge="1" parent="1" source="ywMon-VLnov4TyRL90F_-109" target="ywMon-VLnov4TyRL90F_-29">
          <mxGeometry relative="1" as="geometry">
            <Array as="points">
              <mxPoint x="30" y="690" />
              <mxPoint x="30" y="50" />
            </Array>
          </mxGeometry>
        </mxCell>
        <mxCell id="ywMon-VLnov4TyRL90F_-140" style="edgeStyle=orthogonalEdgeStyle;rounded=0;orthogonalLoop=1;jettySize=auto;html=1;exitX=0.75;exitY=0;exitDx=0;exitDy=0;entryX=0.5;entryY=1;entryDx=0;entryDy=0;fillColor=#60a917;strokeColor=#2D7600;" edge="1" parent="1" source="ywMon-VLnov4TyRL90F_-109" target="ywMon-VLnov4TyRL90F_-103">
          <mxGeometry relative="1" as="geometry" />
        </mxCell>
        <mxCell id="ywMon-VLnov4TyRL90F_-141" style="edgeStyle=orthogonalEdgeStyle;rounded=0;orthogonalLoop=1;jettySize=auto;html=1;exitX=1;exitY=0.5;exitDx=0;exitDy=0;entryX=1;entryY=0.5;entryDx=0;entryDy=0;fillColor=#60a917;strokeColor=#2D7600;" edge="1" parent="1" source="ywMon-VLnov4TyRL90F_-109" target="ywMon-VLnov4TyRL90F_-106">
          <mxGeometry relative="1" as="geometry" />
        </mxCell>
        <mxCell id="ywMon-VLnov4TyRL90F_-109" value="modificarapp.php" style="whiteSpace=wrap;html=1;align=center;fillColor=#60a917;fontColor=#ffffff;strokeColor=#2D7600;" vertex="1" parent="1">
          <mxGeometry x="-170" y="680" width="100" height="40" as="geometry" />
        </mxCell>
        <mxCell id="ywMon-VLnov4TyRL90F_-116" style="edgeStyle=orthogonalEdgeStyle;rounded=0;orthogonalLoop=1;jettySize=auto;html=1;exitX=0.5;exitY=1;exitDx=0;exitDy=0;entryX=0.5;entryY=0;entryDx=0;entryDy=0;fillColor=#60a917;strokeColor=#2D7600;startArrow=classic;startFill=1;" edge="1" parent="1" source="ywMon-VLnov4TyRL90F_-110" target="ywMon-VLnov4TyRL90F_-101">
          <mxGeometry relative="1" as="geometry" />
        </mxCell>
        <mxCell id="ywMon-VLnov4TyRL90F_-132" style="edgeStyle=orthogonalEdgeStyle;rounded=0;orthogonalLoop=1;jettySize=auto;html=1;exitX=0.75;exitY=1;exitDx=0;exitDy=0;entryX=0.75;entryY=1;entryDx=0;entryDy=0;fillColor=#60a917;strokeColor=#2D7600;" edge="1" parent="1" source="ywMon-VLnov4TyRL90F_-110" target="ywMon-VLnov4TyRL90F_-29">
          <mxGeometry relative="1" as="geometry">
            <Array as="points">
              <mxPoint x="-435" y="740" />
              <mxPoint x="40" y="740" />
              <mxPoint x="40" y="80" />
            </Array>
          </mxGeometry>
        </mxCell>
        <mxCell id="ywMon-VLnov4TyRL90F_-134" style="edgeStyle=orthogonalEdgeStyle;rounded=0;orthogonalLoop=1;jettySize=auto;html=1;exitX=0.25;exitY=0;exitDx=0;exitDy=0;entryX=0;entryY=0.5;entryDx=0;entryDy=0;fillColor=#60a917;strokeColor=#2D7600;" edge="1" parent="1" source="ywMon-VLnov4TyRL90F_-110" target="ywMon-VLnov4TyRL90F_-2">
          <mxGeometry relative="1" as="geometry">
            <Array as="points">
              <mxPoint x="-510" y="680" />
              <mxPoint x="-510" y="300" />
            </Array>
          </mxGeometry>
        </mxCell>
        <mxCell id="ywMon-VLnov4TyRL90F_-136" style="edgeStyle=orthogonalEdgeStyle;rounded=0;orthogonalLoop=1;jettySize=auto;html=1;exitX=1;exitY=0.5;exitDx=0;exitDy=0;entryX=0.25;entryY=1;entryDx=0;entryDy=0;fillColor=#60a917;strokeColor=#2D7600;" edge="1" parent="1" source="ywMon-VLnov4TyRL90F_-110" target="ywMon-VLnov4TyRL90F_-102">
          <mxGeometry relative="1" as="geometry">
            <Array as="points">
              <mxPoint x="-410" y="660" />
              <mxPoint x="-215" y="660" />
            </Array>
          </mxGeometry>
        </mxCell>
        <mxCell id="ywMon-VLnov4TyRL90F_-137" style="edgeStyle=orthogonalEdgeStyle;rounded=0;orthogonalLoop=1;jettySize=auto;html=1;exitX=1;exitY=1;exitDx=0;exitDy=0;entryX=0.75;entryY=1;entryDx=0;entryDy=0;fillColor=#60a917;strokeColor=#2D7600;" edge="1" parent="1" source="ywMon-VLnov4TyRL90F_-110" target="ywMon-VLnov4TyRL90F_-103">
          <mxGeometry relative="1" as="geometry">
            <Array as="points">
              <mxPoint x="-410" y="750" />
              <mxPoint x="-10" y="750" />
            </Array>
          </mxGeometry>
        </mxCell>
        <mxCell id="ywMon-VLnov4TyRL90F_-138" style="edgeStyle=orthogonalEdgeStyle;rounded=0;orthogonalLoop=1;jettySize=auto;html=1;exitX=0.75;exitY=0;exitDx=0;exitDy=0;entryX=0.25;entryY=1;entryDx=0;entryDy=0;fillColor=#60a917;strokeColor=#2D7600;" edge="1" parent="1" source="ywMon-VLnov4TyRL90F_-110" target="ywMon-VLnov4TyRL90F_-106">
          <mxGeometry relative="1" as="geometry">
            <Array as="points">
              <mxPoint x="-435" y="630" />
              <mxPoint x="85" y="630" />
            </Array>
          </mxGeometry>
        </mxCell>
        <mxCell id="ywMon-VLnov4TyRL90F_-110" value="modificaauto.php" style="whiteSpace=wrap;html=1;align=center;fillColor=#60a917;fontColor=#ffffff;strokeColor=#2D7600;" vertex="1" parent="1">
          <mxGeometry x="-510" y="680" width="100" height="40" as="geometry" />
        </mxCell>
        <mxCell id="ywMon-VLnov4TyRL90F_-122" style="edgeStyle=orthogonalEdgeStyle;rounded=0;orthogonalLoop=1;jettySize=auto;html=1;exitX=0.5;exitY=1;exitDx=0;exitDy=0;entryX=0.57;entryY=0.05;entryDx=0;entryDy=0;entryPerimeter=0;fillColor=#60a917;strokeColor=#2D7600;startArrow=classic;startFill=1;" edge="1" parent="1" source="ywMon-VLnov4TyRL90F_-2" target="ywMon-VLnov4TyRL90F_-102">
          <mxGeometry relative="1" as="geometry">
            <Array as="points">
              <mxPoint x="-130" y="440" />
              <mxPoint x="-183" y="440" />
            </Array>
          </mxGeometry>
        </mxCell>
        <mxCell id="ywMon-VLnov4TyRL90F_-127" style="edgeStyle=orthogonalEdgeStyle;rounded=0;orthogonalLoop=1;jettySize=auto;html=1;exitX=0.75;exitY=0;exitDx=0;exitDy=0;entryX=0.15;entryY=-0.025;entryDx=0;entryDy=0;entryPerimeter=0;fillColor=#60a917;strokeColor=#2D7600;startArrow=classic;startFill=1;" edge="1" parent="1" source="ywMon-VLnov4TyRL90F_-105" target="ywMon-VLnov4TyRL90F_-103">
          <mxGeometry relative="1" as="geometry" />
        </mxCell>
        <mxCell id="ywMon-VLnov4TyRL90F_-128" style="edgeStyle=orthogonalEdgeStyle;rounded=0;orthogonalLoop=1;jettySize=auto;html=1;exitX=0.75;exitY=1;exitDx=0;exitDy=0;entryX=0.33;entryY=1;entryDx=0;entryDy=0;entryPerimeter=0;fillColor=#60a917;strokeColor=#2D7600;startArrow=classic;startFill=1;" edge="1" parent="1" source="ywMon-VLnov4TyRL90F_-105" target="ywMon-VLnov4TyRL90F_-106">
          <mxGeometry relative="1" as="geometry" />
        </mxCell>
        <mxCell id="ywMon-VLnov4TyRL90F_-135" style="edgeStyle=orthogonalEdgeStyle;rounded=0;orthogonalLoop=1;jettySize=auto;html=1;exitX=0.75;exitY=0;exitDx=0;exitDy=0;entryX=0.62;entryY=1.075;entryDx=0;entryDy=0;entryPerimeter=0;fillColor=#60a917;strokeColor=#2D7600;" edge="1" parent="1" source="ywMon-VLnov4TyRL90F_-109" target="ywMon-VLnov4TyRL90F_-2">
          <mxGeometry relative="1" as="geometry">
            <Array as="points">
              <mxPoint x="-110" y="680" />
              <mxPoint x="-110" y="480" />
              <mxPoint x="-118" y="480" />
            </Array>
          </mxGeometry>
        </mxCell>
        <mxCell id="ywMon-VLnov4TyRL90F_-139" style="edgeStyle=orthogonalEdgeStyle;rounded=0;orthogonalLoop=1;jettySize=auto;html=1;exitX=0.25;exitY=0;exitDx=0;exitDy=0;entryX=0.908;entryY=1.1;entryDx=0;entryDy=0;entryPerimeter=0;fillColor=#60a917;strokeColor=#2D7600;" edge="1" parent="1" source="ywMon-VLnov4TyRL90F_-109" target="ywMon-VLnov4TyRL90F_-105">
          <mxGeometry relative="1" as="geometry">
            <Array as="points">
              <mxPoint x="-145" y="640" />
              <mxPoint x="-291" y="640" />
            </Array>
          </mxGeometry>
        </mxCell>
      </root>
    </mxGraphModel>
  </diagram>
</mxfile>
